#!OML:ASF Y:\EmotionMaleHayes\Project 1\Capture day 1\Session 1\Male1.ASF
:FULLY-SPECIFIED
:DEGREES
319
root 49.2146 17.2705 -2.21519 393.461 83.4243 398.397
lowerback 7.38175 2.07053 -7.28346
upperback 1.1897 2.19484 -0.919377
thorax -3.13937 1.18553 2.90727
lowerneck -26.3215 2.02672 2.40104
upperneck 18.3889 2.46917 -2.39277
head 10.2492 1.00649 -0.849708
rclavicle 3.72721e-015 4.96962e-015
rhumerus -28.9809 10.1644 -91.4567
rradius 44.6315
rwrist -11.3919
rhand -11.2713 -31.2346
rfingers 7.12502
rthumb 14.7591 -60.6892
lclavicle 3.72721e-015 4.96962e-015
lhumerus -38.3441 -14.5457 90.9075
lradius 30.8636
lwrist -4.52597
lhand -13.4505 -27.0765
lfingers 7.12502
lthumb 12.6589 2.51984
rfemur 6.26398 -0.257242 11.3154
rtibia 8.05134
rfoot -7.7943 -0.588053
rtoes 22.1686
lfemur 13.7258 6.78626 -21.4801
ltibia -0.316534
lfoot -9.48899 8.36027
ltoes 12.2922
320
root 49.2039 17.2682 -2.21332 392.019 83.718 396.938
lowerback 7.54199 2.05391 -7.1077
upperback 1.19833 2.1743 -0.852665
thorax -3.21401 1.17542 2.87603
lowerneck -26.7534 2.01416 2.20671
upperneck 18.6117 2.41499 -1.97102
head 10.3946 1.01712 -0.673446
rclavicle -9.67522e-015 2.70347e-014
rhumerus -29.4906 10.3107 -91.5771
rradius 43.9798
rwrist -10.7088
rhand -11.3344 -31.8077
rfingers 7.12502
rthumb 14.6984 -61.2666
lclavicle -9.67522e-015 2.70347e-014
lhumerus -38.0735 -14.9273 91.1561
lradius 31.9074
lwrist -3.53684
lhand -14.2711 -27.262
lfingers 7.12502
lthumb 11.8677 2.38164
rfemur 6.11831 -0.158376 11.7408
rtibia 8.26612
rfoot -7.93993 -0.841366
rtoes 22.0393
lfemur 13.7885 6.79352 -20.9984
ltibia -0.479146
lfoot -9.49669 8.08368
ltoes 13.2095
321
root 49.1996 17.2681 -2.21454 391.724 83.9947 396.628
lowerback 7.56422 2.0188 -6.96746
upperback 1.25522 2.1408 -0.840237
thorax -3.159 1.15463 2.81492
lowerneck -27.0885 1.74376 1.65516
upperneck 18.611 2.13991 -1.5339
head 10.4337 0.904172 -0.470135
rclavicle -1.14922e-015 9.93923e-016
rhumerus -29.9208 10.8141 -91.7516
rradius 43.2898
rwrist -10.5171
rhand -10.9713 -31.5576
rfingers 7.12502
rthumb 15.0481 -60.9907
lclavicle -1.14922e-015 9.93923e-016
lhumerus -37.7062 -15.2061 91.3041
lradius 32.9656
lwrist -2.71552
lhand -14.6145 -27.2541
lfingers 7.12502
lthumb 11.5365 2.40838
rfemur 6.02542 -0.321835 11.9204
rtibia 8.46731
rfoot -8.0604 -0.874215
rtoes 22.3207
lfemur 13.8833 6.68534 -20.7522
ltibia -0.633285
lfoot -9.57813 7.76096
ltoes 15.0022
322
root 49.2038 17.2696 -2.22132 392.373 84.2324 397.264
lowerback 7.59931 1.98194 -6.87427
upperback 1.22378 2.09425 -0.844181
thorax -3.20333 1.13226 2.76226
lowerneck -27.1059 1.63215 1.60489
upperneck 18.5829 1.99563 -1.49671
head 10.4229 0.839184 -0.472337
rclavicle 1.02064e-014 4.57205e-015
rhumerus -30.5186 11.5442 -91.9821
rradius 42.5064
rwrist -10.6621
rhand -10.7059 -31.3025
rfingers 7.12502
rthumb 15.3037 -60.7163
lclavicle 1.02064e-014 4.57205e-015
lhumerus -37.5452 -15.4347 91.5228
lradius 34.0904
lwrist -2.05561
lhand -14.8004 -26.8824
lfingers 7.12502
lthumb 11.3573 2.79002
rfemur 6.07096 -0.66197 11.9287
rtibia 8.52724
rfoot -8.12027 -0.752685
rtoes 22.3134
lfemur 13.992 6.58669 -20.7199
ltibia -0.819609
lfoot -9.45649 7.54433
ltoes 15.3195
323
root 49.2095 17.2689 -2.22978 396.476 84.2173 401.415
lowerback 7.51096 1.96332 -7.17078
upperback 1.32476 2.05857 -0.980886
thorax -3.0498 1.11221 2.79414
lowerneck -26.9658 1.66321 1.83181
upperneck 18.2907 1.96158 -1.55799
head 10.2946 0.833554 -0.537476
rclavicle -1.24613e-014 -4.37326e-015
rhumerus -30.9631 11.8569 -92.152
rradius 41.7593
rwrist -10.4998
rhand -10.8119 -31.2994
rfingers 7.12502
rthumb 15.2017 -60.721
lclavicle -1.24613e-014 -4.37326e-015
lhumerus -37.2211 -15.8048 91.7224
lradius 35.1289
lwrist -1.46978
lhand -15.3091 -26.7168
lfingers 7.12502
lthumb 10.8666 2.98209
rfemur 6.18784 -1.03272 11.3524
rtibia 8.53264
rfoot -8.1099 -0.599167
rtoes 22.3333
lfemur 14.0625 6.69298 -21.1666
ltibia -0.895828
lfoot -9.26005 7.22663
ltoes 14.6697
324
root 49.208 17.2648 -2.23199 403.503 83.8264 408.616
lowerback 7.69159 1.98782 -8.08829
upperback 1.38598 2.00544 -1.18433
thorax -3.10343 1.09799 3.09532
lowerneck -26.9945 1.6457 1.87105
upperneck 18.2285 1.89845 -1.47049
head 10.275 0.818563 -0.522553
rclavicle -1.084e-014 1.37161e-014
rhumerus -31.5471 11.8295 -92.2577
rradius 41.1502
rwrist -10.1924
rhand -10.8899 -31.226
rfingers 7.12502
rthumb 15.1265 -60.6532
lclavicle -1.084e-014 1.37161e-014
lhumerus -36.9499 -16.004 91.9158
lradius 36.1553
lwrist -1.00694
lhand -15.8449 -26.7225
lfingers 7.12502
lthumb 10.3498 3.00282
rfemur 6.39164 -1.0755 10.2969
rtibia 8.51768
rfoot -8.16978 -0.669389
rtoes 22.5602
lfemur 14.1194 6.90921 -22.0711
ltibia -0.80695
lfoot -9.03307 7.0027
ltoes 13.6119
325
root 49.2056 17.2703 -2.23797 396.796 84.6394 401.839
lowerback 7.68826 1.9147 -6.97451
upperback 1.40881 2.00125 -0.912988
thorax -3.05109 1.08055 2.75797
lowerneck -26.5999 1.63845 2.00649
upperneck 17.7266 1.94117 -1.90072
head 10.0329 0.796078 -0.693144
rclavicle -1.00697e-014 -1.2921e-014
rhumerus -32.0762 11.8107 -92.347
rradius 40.535
rwrist -10.1474
rhand -10.9884 -31.2799
rfingers 7.12502
rthumb 15.0317 -60.7143
lclavicle -1.00697e-014 -1.2921e-014
lhumerus -36.6258 -16.1699 92.0824
lradius 37.2125
lwrist -0.537546
lhand -16.0296 -26.4419
lfingers 7.12502
lthumb 10.1716 3.29219
rfemur 6.37782 -1.16751 11.5899
rtibia 8.51767
rfoot -8.31756 -0.756056
rtoes 22.8459
lfemur 14.1324 6.75084 -20.8495
ltibia -0.84259
lfoot -8.7911 7.0155
ltoes 12.2096
326
root 49.2002 17.2686 -2.23843 400.408 84.5689 405.539
lowerback 7.85921 1.92362 -7.33692
upperback 1.42677 1.96982 -1.0029
thorax -3.13283 1.07175 2.86551
lowerneck -27.1233 1.27301 1.00485
upperneck 18.1971 1.59779 -0.970386
head 10.2677 0.681222 -0.251288
rclavicle -2.55314e-014 2.3059e-014
rhumerus -32.6581 11.9421 -92.5196
rradius 39.9055
rwrist -10.3142
rhand -11.0002 -31.6107
rfingers 7.12502
rthumb 15.0203 -61.0459
lclavicle -2.55314e-014 2.3059e-014
lhumerus -36.4006 -16.3337 92.2089
lradius 38.3134
lwrist -0.179239
lhand -16.0498 -26.0085
lfingers 7.12502
lthumb 10.1521 3.72658
rfemur 6.5599 -1.03259 11.2461
rtibia 8.3501
rfoot -8.42658 -1.02725
rtoes 23.2417
lfemur 14.163 6.52598 -21.285
ltibia -0.861699
lfoot -8.76073 6.99498
ltoes 12.886
327
root 49.1919 17.2705 -2.24092 403.602 84.5847 408.669
lowerback 7.94778 1.89621 -7.5668
upperback 1.38837 1.90314 -1.08177
thorax -3.21975 1.0451 2.91591
lowerneck -27.1216 1.25807 0.966429
upperneck 18.1351 1.57752 -0.914611
head 10.2438 0.676411 -0.228441
rclavicle -6.34869e-015 -2.18663e-015
rhumerus -33.2462 12.0355 -92.714
rradius 39.3289
rwrist -10.5929
rhand -11.0525 -32.0401
rfingers 7.12502
rthumb 14.9699 -61.4791
lclavicle -6.34869e-015 -2.18663e-015
lhumerus -36.2116 -16.4977 92.315
lradius 39.4276
lwrist 0.185172
lhand -16.0246 -25.5904
lfingers 7.12502
lthumb 10.1765 4.14346
rfemur 6.58063 -1.06678 10.994
rtibia 8.19226
rfoot -8.32572 -1.14861
rtoes 23.2192
lfemur 13.9854 6.31762 -21.6298
ltibia -0.82019
lfoot -8.73532 6.93998
ltoes 14.3229
328
root 49.1837 17.2752 -2.24341 402.517 85.0147 407.506
lowerback 8.0585 1.83545 -7.1925
upperback 1.34654 1.84188 -0.994724
thorax -3.3105 1.01358 2.80103
lowerneck -26.7806 1.55302 1.73244
upperneck 17.7979 1.87295 -1.6795
head 10.0827 0.77189 -0.580158
rclavicle 4.44781e-015 -1.68967e-014
rhumerus -33.7546 11.8543 -92.802
rradius 38.6557
rwrist -10.843
rhand -11.292 -31.7702
rfingers 7.12502
rthumb 14.7392 -61.2262
lclavicle 4.44781e-015 -1.68967e-014
lhumerus -36.0232 -16.7051 92.4559
lradius 40.494
lwrist 0.570832
lhand -16.0083 -25.2425
lfingers 7.12502
lthumb 10.1921 4.49064
rfemur 6.56671 -1.29022 11.409
rtibia 8.14742
rfoot -8.29593 -1.07709
rtoes 22.9211
lfemur 13.8069 6.15059 -21.2229
ltibia -0.697213
lfoot -8.5938 6.89033
ltoes 14.4981
329
root 49.1805 17.28 -2.24607 403.469 85.2893 408.355
lowerback 8.09415 1.78703 -7.04824
upperback 1.29696 1.7837 -0.966836
thorax -3.37301 0.985545 2.75446
lowerneck -26.8572 1.47458 1.69708
upperneck 17.8011 1.79243 -1.73996
head 10.0958 0.724195 -0.60883
rclavicle -2.47238e-015 4.17448e-015
rhumerus -34.2507 11.5173 -92.8231
rradius 37.8482
rwrist -10.795
rhand -11.4319 -31.0551
rfingers 7.12502
rthumb 14.6044 -60.5209
lclavicle -2.47238e-015 4.17448e-015
lhumerus -35.8538 -16.9134 92.6144
lradius 41.4881
lwrist 0.756591
lhand -16.2578 -25.0688
lfingers 7.12502
lthumb 9.9514 4.67597
rfemur 6.53497 -1.72872 11.4523
rtibia 8.18683
rfoot -8.42407 -0.823156
rtoes 22.7591
lfemur 13.5877 6.09869 -21.0849
ltibia -0.528168
lfoot -8.65424 6.69405
ltoes 15.0821
330
root 49.1813 17.2848 -2.24648 412.061 84.7728 416.763
lowerback 7.94708 1.7929 -7.9892
upperback 1.24501 1.71946 -1.2009
thorax -3.35787 0.966836 3.04572
lowerneck -26.9085 1.52719 1.84437
upperneck 17.7913 1.86494 -1.97826
head 10.1068 0.737474 -0.70611
rclavicle 1.18712e-014 -5.04913e-014
rhumerus -34.7716 11.3134 -92.8733
rradius 37.1955
rwrist -10.6766
rhand -11.1913 -31.1123
rfingers 7.12502
rthumb 14.8362 -60.5611
lclavicle 1.18712e-014 -5.04913e-014
lhumerus -35.6778 -17.0855 92.761
lradius 42.3997
lwrist 0.932902
lhand -16.6004 -25.2003
lfingers 7.12502
lthumb 9.62092 4.56001
rfemur 6.40779 -2.14501 10.2262
rtibia 7.96551
rfoot -8.2409 -0.769548
rtoes 21.4908
lfemur 13.2005 6.12643 -22.1867
ltibia -0.3409
lfoot -8.77193 6.49322
ltoes 15.8191
331
root 49.1948 17.2814 -2.24738 414.851 84.7953 419.604
lowerback 7.8839 1.76306 -8.10703
upperback 1.28586 1.67903 -1.24839
thorax -3.27686 0.944989 3.0688
lowerneck -26.9723 1.47918 1.78687
upperneck 17.8093 1.81191 -1.94322
head 10.1221 0.712976 -0.692703
rclavicle -4.58447e-015 7.15625e-015
rhumerus -35.3674 11.0895 -92.9211
rradius 36.7819
rwrist -10.579
rhand -10.8831 -31.7682
rfingers 7.12502
rthumb 15.1331 -61.1949
lclavicle -4.58447e-015 7.15625e-015
lhumerus -35.5607 -17.3328 92.922
lradius 43.3186
lwrist 1.36591
lhand -16.7189 -25.2869
lfingers 7.12502
lthumb 9.50653 4.47865
rfemur 6.68864 -2.74122 9.86665
rtibia 7.92741
rfoot -8.29031 -0.442076
rtoes 21.2834
lfemur 13.2669 6.23613 -22.3317
ltibia -0.265248
lfoot -8.61252 6.12558
ltoes 14.7376
332
root 49.172 17.2874 -2.24941 417.312 85.0127 421.772
lowerback 7.80307 1.68687 -8.02244
upperback 1.26508 1.59134 -1.22105
thorax -3.24211 0.899425 3.06177
lowerneck -26.8866 1.45239 1.81987
upperneck 17.4625 1.80501 -2.14083
head 9.98468 0.688595 -0.769455
rclavicle 1.27906e-014 -6.36111e-015
rhumerus -35.7402 10.7568 -92.8227
rradius 36.3945
rwrist -10.2983
rhand -10.6445 -32.3012
rfingers 7.12502
rthumb 15.3629 -61.7105
lclavicle 1.27906e-014 -6.36111e-015
lhumerus -35.1974 -17.6698 93.0649
lradius 44.1995
lwrist 1.93343
lhand -16.6425 -25.0391
lfingers 7.12502
lthumb 9.58029 4.72307
rfemur 6.27341 -3.00639 9.89834
rtibia 8.10175
rfoot -8.42051 -0.438068
rtoes 22.2544
lfemur 12.6451 6.22607 -22.2895
ltibia 0.0996044
lfoot -8.38798 5.89822
ltoes 13.1245
333
root 49.157 17.2897 -2.23666 415.597 85.3356 419.9
lowerback 7.74735 1.71924 -7.83422
upperback 1.31154 1.65996 -1.08502
thorax -3.16915 0.92728 3.09317
lowerneck -27.0967 1.28746 1.43292
upperneck 17.4005 1.64864 -1.82957
head 9.98783 0.627586 -0.62038
rclavicle -1.28092e-014 2.32578e-014
rhumerus -36.0267 10.3191 -92.664
rradius 35.9181
rwrist -9.86523
rhand -10.1169 -32.7357
rfingers 7.12502
rthumb 15.8711 -62.1053
lclavicle -1.28092e-014 2.32578e-014
lhumerus -34.7667 -18.122 93.2211
lradius 44.9645
lwrist 2.4907
lhand -16.6914 -24.9405
lfingers 7.12502
lthumb 9.53311 4.82389
rfemur 6.01633 -2.40259 10.5913
rtibia 8.08103
rfoot -8.67374 -1.11968
rtoes 21.6809
lfemur 12.2987 6.10151 -21.7539
ltibia 0.255427
lfoot -8.26899 5.98891
ltoes 13.1254
